HIERARCHY
ROOT root
{
	OFFSET 0.000000 0.000000 0.000000
	CHANNELS 6 Xposition Yposition Zposition Zrotation Yrotation Xrotation
	JOINT lhip
	{
		OFFSET 0.058581 -0.082280 -0.017664
		CHANNELS 3 Zrotation Yrotation Xrotation
		JOINT lknee
		{
			OFFSET 0.043451 -0.386469 0.008037
			CHANNELS 3 Zrotation Yrotation Xrotation
			JOINT lankle
			{
				OFFSET -0.014790 -0.426874 -0.037428
				CHANNELS 3 Zrotation Yrotation Xrotation
				JOINT ltoe
				{
					OFFSET 0.041054 -0.060286 0.122042
					CHANNELS 3 Zrotation Yrotation Xrotation
					End Site
					{
						OFFSET 0.000000 0.000000 0.000000
					}
				}
			}
		}
	}
	JOINT rhip
	{
		OFFSET -0.060310 -0.090513 -0.013543
		CHANNELS 3 Zrotation Yrotation Xrotation
		JOINT rknee
		{
			OFFSET -0.043257 -0.383688 -0.004843
			CHANNELS 3 Zrotation Yrotation Xrotation
			JOINT rankle
			{
				OFFSET 0.019056 -0.420046 -0.034562
				CHANNELS 3 Zrotation Yrotation Xrotation
				JOINT rtoe
				{
					OFFSET -0.034840 -0.062106 0.130323
					CHANNELS 3 Zrotation Yrotation Xrotation
					End Site
					{
						OFFSET 0.000000 0.000000 0.000000
					}
				}
			}
		}
	}
	JOINT lowerback
	{
		OFFSET 0.004439 0.124404 -0.038385
		CHANNELS 3 Zrotation Yrotation Xrotation
		JOINT upperback
		{
			OFFSET 0.004488 0.137956 0.026820
			CHANNELS 3 Zrotation Yrotation Xrotation
			JOINT chest
			{
				OFFSET -0.002265 0.056032 0.002855
				CHANNELS 3 Zrotation Yrotation Xrotation
				JOINT lowerneck
				{
					OFFSET -0.013390 0.211636 -0.033468
					CHANNELS 3 Zrotation Yrotation Xrotation
					JOINT upperneck
					{
						OFFSET 0.010113 0.088937 0.050410
						CHANNELS 3 Zrotation Yrotation Xrotation
						End Site
						{
							OFFSET 0.000000 0.000000 0.000000
						}
					}
				}
				JOINT lclavicle
				{
					OFFSET 0.071702 0.114000 -0.018898
					CHANNELS 3 Zrotation Yrotation Xrotation
					JOINT lshoulder
					{
						OFFSET 0.122921 0.045205 -0.019046
						CHANNELS 3 Zrotation Yrotation Xrotation
						JOINT lelbow
						{
							OFFSET 0.255332 -0.015649 -0.022946
							CHANNELS 3 Zrotation Yrotation Xrotation
							JOINT lwrist
							{
								OFFSET 0.265709 0.012698 -0.007375
								CHANNELS 3 Zrotation Yrotation Xrotation
								End Site
								{
									OFFSET 0.000000 0.000000 0.000000
								}
							}
						}
					}
				}
				JOINT rclavicle
				{
					OFFSET -0.082954 0.112472 -0.023707
					CHANNELS 3 Zrotation Yrotation Xrotation
					JOINT rshoulder
					{
						OFFSET -0.113228 0.046853 -0.008472
						CHANNELS 3 Zrotation Yrotation Xrotation
						JOINT relbow
						{
							OFFSET -0.260127 -0.014369 -0.031269
							CHANNELS 3 Zrotation Yrotation Xrotation
							JOINT rwrist
							{
								OFFSET -0.269108 0.006794 -0.006027
								CHANNELS 3 Zrotation Yrotation Xrotation
								End Site
								{
									OFFSET 0.000000 0.000000 0.000000
								}
							}
						}
					}
				}
			}
		}
	}
}
MOTION
Frames: 10
Frame Time: 0.033333
0.389639 0.172064 1.002497 85.674766 0.301585 88.743383 6.763316 5.188882 7.498130 -3.800862 -2.506290 -3.510063 0.941003 7.775065 -5.002898 0.000000 -0.000000 0.000000 -7.072697 -4.295363 1.564987 1.033931 -1.524238 5.643092 5.108686 -3.862987 -8.430471 0.000000 -0.000000 0.000000 -4.665569 3.373411 -5.174949 3.159372 -2.639091 14.984850 0.246868 1.459276 -4.936777 0.252278 4.292721 7.057680 4.854550 -1.732339 -11.385352 -29.129914 -7.037099 0.147344 -54.323729 -6.279566 18.968264 -1.151843 -20.200766 10.036607 -5.562500 -13.754519 12.259126 29.610182 7.757491 6.286967 53.204724 2.962786 13.116180 -9.500636 26.353487 -4.244978 1.755459 12.091353 1.991417 
0.389505 0.172174 1.002276 85.744049 0.307739 88.622608 6.784757 5.108562 7.736821 -3.763829 -2.494155 -3.714616 0.828084 7.666263 -4.980440 0.000000 -0.000000 0.000000 -7.055832 -4.203143 1.693195 1.020821 -1.546391 5.669394 5.049253 -3.967873 -8.483425 0.000000 -0.000000 0.000000 -4.609865 3.247420 -5.015938 3.046065 -2.533396 14.838933 0.307383 1.485226 -4.645446 0.322466 4.331179 6.663249 4.784873 -2.110843 -10.870439 -28.825599 -7.094638 0.210902 -54.509759 -6.347997 18.677165 -1.421172 -20.462974 10.206630 -6.927409 -13.206452 12.005259 29.508267 7.874215 6.350783 53.428767 3.230890 13.088591 -9.965629 26.257930 -4.624480 2.499971 11.879049 2.012615 
0.389317 0.172203 1.002327 85.926408 0.254369 88.750156 6.737160 5.063623 7.549179 -3.781706 -2.531760 -3.696163 0.734909 7.559179 -4.944045 0.000000 -0.000000 0.000000 -7.097273 -4.200069 1.599321 1.042916 -1.596248 5.636375 5.015552 -4.101970 -8.430387 0.000000 -0.000000 0.000000 -4.513190 3.390549 -4.710275 2.901189 -2.510803 14.571008 0.267155 1.234097 -4.902718 0.522078 4.617089 6.711115 4.620041 -1.819714 -10.678873 -28.681204 -6.852737 0.067430 -54.442471 -6.265472 18.703379 -1.523066 -20.354813 10.462451 -7.135981 -13.127461 12.027945 29.633608 7.437681 6.089658 53.521851 3.269883 13.182969 -10.026552 26.316421 -4.598516 2.658220 11.761980 2.085204 
0.389096 0.172223 1.002337 86.094978 0.228429 88.743512 6.722676 4.998211 7.517644 -3.814214 -2.587859 -3.662141 0.660610 7.550607 -5.016396 0.000000 -0.000000 0.000000 -7.105880 -4.107687 1.721668 1.046378 -1.695441 5.486737 5.007017 -4.241889 -8.388330 0.000000 -0.000000 0.000000 -4.466505 3.364278 -4.591664 2.763411 -2.532151 14.607314 0.295886 1.205966 -4.996481 0.831653 4.842206 6.614506 4.511956 -1.633009 -10.137525 -28.393283 -7.122984 0.262897 -54.624605 -6.304935 18.656781 -1.239790 -19.999016 10.232094 -7.308568 -13.140542 12.058190 29.297305 8.019731 6.507523 54.267623 3.162739 13.380623 -10.563089 26.338491 -5.404497 2.260406 12.042094 1.588102 
0.389072 0.172232 1.002328 86.149624 0.231201 88.724543 6.726131 4.977349 7.511361 -3.819992 -2.602888 -3.616796 0.684219 7.531198 -5.019740 0.000000 -0.000000 0.000000 -7.098339 -4.100307 1.779482 1.044143 -1.715688 5.443534 5.005844 -4.265100 -8.392077 0.000000 -0.000000 0.000000 -4.465831 3.350395 -4.547514 2.753604 -2.543808 14.602689 0.320405 1.179948 -4.971110 0.805894 4.859908 6.568411 4.454930 -1.638989 -10.153739 -28.342177 -7.168236 0.279740 -54.634882 -6.331311 18.635543 -1.160497 -19.901979 10.195941 -7.367398 -13.124981 12.008575 29.233988 8.076481 6.506131 54.425947 3.168803 13.409530 -10.625410 26.346987 -5.401282 2.252006 12.045633 1.491220 
0.389041 0.172132 1.002279 86.224573 0.263202 88.724893 6.759382 4.943403 7.478230 -3.824835 -2.646451 -3.562462 0.662119 7.523172 -5.015473 0.000000 -0.000000 0.000000 -7.048814 -4.084072 1.806055 1.064096 -1.692201 5.388038 5.010298 -4.352241 -8.405781 0.000000 -0.000000 0.000000 -4.456146 3.353051 -4.506566 2.759315 -2.564180 14.464170 0.377171 1.137239 -4.780239 0.736755 5.002202 6.424707 4.466828 -1.718509 -10.175751 -28.146524 -7.191215 0.143661 -54.857304 -6.759871 18.493699 -1.077633 -18.975512 10.414850 -7.609494 -13.316370 12.138956 29.185361 7.938446 6.363007 54.610365 3.286713 13.418133 -10.567612 26.321573 -4.999983 2.251588 11.973920 1.391500 
0.388974 0.171758 1.002281 86.207192 0.268667 88.666510 6.775437 4.922532 7.543171 -3.845297 -2.639250 -3.552856 0.613442 7.538005 -5.052711 0.000000 -0.000000 0.000000 -7.038094 -4.093868 1.840681 1.087102 -1.636593 5.369553 5.013724 -4.361611 -8.442297 0.000000 -0.000000 0.000000 -4.440449 3.415617 -4.394870 2.729797 -2.522975 14.370257 0.387111 1.138115 -4.672581 0.697442 4.956673 6.156115 4.593493 -1.925507 -10.058773 -28.118473 -7.242301 0.168740 -54.740666 -7.054302 18.207591 -1.074923 -18.533132 10.559840 -7.488018 -13.417708 12.186740 29.277408 7.741042 6.358653 54.651692 3.454485 13.295286 -10.383872 26.371151 -4.485334 2.178020 11.860606 1.409738 
0.388989 0.171525 1.002264 86.167838 0.246463 88.632692 6.744855 4.887744 7.587721 -3.833713 -2.638402 -3.535849 0.601410 7.592262 -5.067033 0.000000 -0.000000 0.000000 -7.049091 -4.065202 1.855758 1.088703 -1.584150 5.385258 4.997897 -4.350223 -8.467440 0.000000 -0.000000 0.000000 -4.410003 3.440775 -4.328705 2.678182 -2.457564 14.398482 0.355260 1.181519 -4.685818 0.678935 4.896035 5.815388 4.739531 -2.215372 -9.732639 -28.123081 -7.298330 0.257690 -54.551671 -7.135387 18.026929 -0.928856 -18.417905 10.479871 -7.498873 -13.432887 12.195879 29.375846 7.730111 6.519572 54.748467 3.506120 13.250105 -10.393787 26.381638 -4.353135 2.041978 11.895405 1.470496 
0.389194 0.171205 1.002225 86.148293 0.232631 88.611784 6.747349 4.907218 7.622171 -3.835770 -2.679057 -3.526896 0.597272 7.626779 -5.073181 0.000000 -0.000000 0.000000 -7.065106 -4.069305 1.873251 1.105415 -1.610989 5.392911 4.973135 -4.333477 -8.460063 0.000000 -0.000000 0.000000 -4.393594 3.465552 -4.281899 2.648266 -2.398958 14.394088 0.353559 1.180487 -4.632291 0.679822 4.896717 5.875864 4.604284 -2.089330 -9.824417 -28.082752 -7.303963 0.210401 -54.402247 -7.123254 17.982529 -0.869465 -18.422201 10.361383 -7.578990 -13.425502 12.169695 29.289599 7.791057 6.564834 54.966130 3.463128 13.307733 -10.287003 26.321601 -4.277865 2.148268 11.907125 1.331764 
0.389383 0.171062 1.002149 86.150688 0.220649 88.655432 6.736788 4.930422 7.587365 -3.839021 -2.700811 -3.492383 0.567979 7.625595 -5.103647 0.000000 -0.000000 0.000000 -7.092093 -4.080012 1.833187 1.153574 -1.585405 5.423178 4.984065 -4.327755 -8.505035 0.000000 -0.000000 0.000000 -4.380292 3.442683 -4.315109 2.622203 -2.366719 14.390784 0.331666 1.152963 -4.659010 0.657004 4.907220 5.791326 4.678806 -2.351725 -9.585178 -28.045133 -7.238227 0.238192 -54.338892 -7.098957 17.942192 -0.719837 -18.402562 10.308141 -7.359544 -13.406522 12.271195 29.309796 7.790670 6.613556 55.116119 3.404760 13.382060 -10.292302 26.297463 -4.288774 1.943892 11.913342 1.453028 
